<svg width="153" height="172" viewBox="0 0 153 172" fill="none" xmlns="http://www.w3.org/2000/svg">
<path fill-rule="evenodd" clip-rule="evenodd" d="M6.30093 170.381C6.10096 169.857 6.14525 169.09 6.39908 168.678C6.65291 168.265 6.98162 163.385 7.12954 157.834C7.35324 149.427 7.22633 147.477 6.36986 146.163C5.71474 145.157 5.49605 143.964 5.76769 142.875C6.12379 141.449 5.97268 141.167 4.85234 141.167C3.37362 141.167 0.18335 137.428 0.18335 135.694C0.18335 134.856 0.814275 134.606 2.95497 134.598L5.72707 134.587L8.62104 128.304C11.3301 122.423 11.7351 121.896 14.9614 120.065C19.4017 117.546 22.114 113.857 22.7052 109.532C23.6319 102.756 25.0015 101.193 30.0289 101.172C32.1135 101.163 32.1491 101.114 31.8062 98.7042C29.4966 82.4643 30.0134 84.1986 25.5891 77.8389C23.348 74.6168 20.501 70.6528 19.2624 69.0296C16.8054 65.8089 9.69846 53.958 10.0651 53.6922C10.1902 53.6018 11.3689 52.9082 12.6851 52.1512L15.0778 50.7745L16.2721 52.1167C17.3943 53.3782 17.9791 53.4374 25.9448 53.0945C30.911 52.8806 37.05 52.142 40.7639 51.312L47.1043 49.8945L54.3385 52.6437C58.3177 54.1554 61.7413 55.2232 61.9472 55.0161C62.1531 54.8091 61.9449 53.2869 61.4842 51.6329C60.9213 49.6112 60.7807 46.7339 61.0551 42.8503C61.4089 37.8388 61.2427 36.3106 59.8001 31.3079C58.8856 28.1363 57.0846 23.8909 55.7976 21.8739C53.3442 18.0279 50.1699 11.3349 50.5958 10.9066C50.7917 10.7097 64.3947 8.0412 65.2023 8.0412C65.3127 8.0412 65.4027 9.53404 65.4027 11.3592C65.4027 14.2155 65.7332 15.0748 67.7771 17.5335C69.3992 19.4845 70.8419 20.5201 72.3297 20.8006C74.0997 21.1343 74.7279 21.7196 75.6843 23.924L76.8604 26.637L78.7655 22.9783L80.6706 19.3197L84.4005 22.2058C86.4517 23.7932 88.276 25.0918 88.4541 25.0918C88.6321 25.0918 88.9727 24.1994 89.211 23.1087C89.4493 22.018 90.3967 20.2268 91.3161 19.1278C92.9396 17.1874 92.9761 16.94 92.5876 10.4545L92.1876 3.77845L95.4085 1.98492C98.3842 0.328195 98.6759 0.27862 99.2384 1.33628C99.5735 1.96564 99.7077 3.21839 99.536 4.11951C99.3128 5.29423 99.6995 6.20637 100.901 7.34161C101.823 8.2129 102.578 9.37521 102.578 9.92516C102.578 10.8777 103.487 14.0759 107.87 28.5347L109.808 34.9284H112.258C113.606 34.9284 115.063 34.5722 115.496 34.137C116.111 33.5187 116.515 33.5779 117.34 34.4083C118.22 35.2929 118.273 35.8305 117.653 37.6175C117.244 38.7982 117.133 39.9789 117.407 40.2415C117.68 40.5036 124.289 44.4602 132.093 49.0328L146.283 57.3472L149.539 56.8969C151.331 56.649 152.797 56.6021 152.797 56.7922C152.797 56.9827 151.929 58.5596 150.868 60.2966C149.807 62.0341 147.874 66.4066 146.573 70.0134C144.281 76.3648 144.179 77.0351 143.346 91.3263C142.873 99.4419 142.457 106.187 142.423 106.316C142.389 106.445 141.963 106.396 141.477 106.208C140.99 106.021 136.219 106.249 130.874 106.716L121.155 107.564L115.239 111.414C111.986 113.531 107.304 117.125 104.835 119.401C99.8036 124.04 99.8556 124.417 105.627 125.142C109.525 125.632 110.506 126.928 108.503 128.942C107.446 130.005 106.467 130.219 103.257 130.087C100.125 129.958 99.2279 130.144 98.9065 130.986C98.6841 131.569 97.0945 132.763 95.3747 133.64L92.2474 135.233L84.406 131.97C78.0839 129.339 75.8304 128.706 72.7771 128.704C70.5296 128.702 65.5547 127.78 60.5401 126.434C55.8926 125.187 51.9783 124.28 51.8413 124.418C51.2934 124.968 50.4324 129.855 50.4178 132.496C50.3972 136.158 47.5357 141.796 43.4483 146.225C39.523 150.48 10.2157 171.324 8.15218 171.329C7.33361 171.331 6.50089 170.905 6.30093 170.381Z" fill="currentColor"/>
</svg>
