<svg width="235" height="384" viewBox="0 0 235 384" fill="none" xmlns="http://www.w3.org/2000/svg">
<path fill-rule="evenodd" clip-rule="evenodd" d="M38.2028 352.001C37.6577 351.308 37.8288 350.968 38.9752 350.349L40.4562 349.554L38.2018 347.626C36.9619 346.566 35.3028 345.441 34.5153 345.129C32.5422 344.34 31.7314 340.185 33.3224 339.015C34.2592 338.326 34.3665 337.582 33.9784 334.461C33.7232 332.404 33.4749 330.729 33.4265 330.733C33.3785 330.738 31.9158 331.174 30.1769 331.706C27.1715 332.62 26.9984 332.606 26.6843 331.399C26.4218 330.389 25.968 330.21 24.466 330.508C23.4274 330.719 22.5778 330.609 22.5778 330.265C22.5778 329.921 21.7287 328.332 20.6914 326.74C19.6537 325.147 18.5977 322.856 18.3443 321.653L17.8837 319.463L13.8717 319.955C8.75801 320.579 8.26769 320.542 5.30568 319.298C3.02574 318.339 2.87874 318.114 3.26314 316.181C3.49096 315.038 3.74798 314.07 3.83381 314.033C3.91964 313.996 5.16416 313.413 6.59905 312.743L9.20769 311.522L5.78368 309.929C2.87326 308.579 2.45372 308.166 2.98558 307.165C3.32935 306.518 4.35654 305.499 5.26779 304.902C7.38429 303.507 7.42951 301.074 5.41071 297.218C4.3415 295.18 3.28097 294.124 1.79997 293.633C-0.231161 292.958 -0.258095 292.903 0.934376 291.815C1.61188 291.2 3.45672 290.323 5.0345 289.864C7.04144 289.281 7.95999 288.64 8.09238 287.73C8.25126 286.636 8.68726 286.469 10.8476 286.677C13.0928 286.892 13.5106 286.709 14.1872 285.216C14.6126 284.277 15.1796 283.509 15.4472 283.509C16.2876 283.509 15.3289 285.997 14.0342 287.175C12.2848 288.767 12.4792 289.292 14.9911 289.767C16.7497 290.098 17.5075 289.873 18.7904 288.648C19.672 287.805 21.0265 286.606 21.8008 285.984C23.0143 285.008 23.1512 284.428 22.7915 281.787C22.4463 279.257 22.5837 278.569 23.5785 277.837C25.6978 276.279 27.1432 276.717 27.1432 278.919C27.1432 281.625 28.7136 281.466 32.2376 278.402C34.2788 276.627 34.9299 275.644 34.6135 274.815C34.3738 274.186 33.7689 273.672 33.269 273.672C31.9656 273.672 32.1496 271.853 33.647 269.939C34.9317 268.297 34.9317 268.292 33.484 265.755C32.5152 264.058 31.4223 263.08 30.1882 262.806C28.3922 262.407 28.3539 262.311 28.7766 259.221L29.2108 256.047L26.5816 255.335C24.2451 254.702 21.273 252.094 21.273 250.677C21.273 250.39 22.2249 250.43 23.3886 250.765C24.5519 251.101 25.5754 251.375 25.6626 251.375C25.8352 251.375 27.7951 246.781 27.7951 246.377C27.7951 246.24 27.208 246.129 26.4908 246.129C24.9239 246.129 24.9308 246.19 26.2105 243.61C26.7738 242.475 27.1409 240.947 27.0259 240.216C26.8227 238.924 26.7474 238.934 24.4058 240.54C21.4949 242.537 21.0744 242.588 21.5552 240.883L22.2957 238.259C22.5778 237.258 22.3541 236.948 21.3479 236.948C19.5058 236.948 16.8488 235.639 16.4223 234.522C16.2256 234.007 16.5118 232.717 17.0583 231.654C17.7764 230.258 17.8696 229.38 17.3948 228.488C16.8739 227.509 17.1382 226.747 18.6699 224.809C19.7327 223.464 20.4627 222.138 20.2924 221.861C20.1226 221.584 18.9529 221.163 17.6933 220.926C16.4338 220.688 15.4034 220.279 15.4034 220.017C15.4034 219.754 16.4789 218.957 17.7938 218.245C19.3661 217.394 20.586 216.038 21.3575 214.285C22.9992 210.553 24.6628 209.185 26.9478 209.69C28.51 210.034 28.9711 209.8 29.9248 208.177C31.0036 206.341 30.9954 206.066 29.7386 201.975C28.4836 197.89 28.4744 197.588 29.5345 195.352C30.5088 193.298 30.9384 193.01 33.0266 193.01C35.3805 193.01 35.4202 192.965 36.493 189.085C37.0897 186.927 37.5782 183.348 37.5782 181.134V177.107L35.6215 177.5C33.9588 177.835 33.6648 177.693 33.6648 176.556C33.6648 174.662 34.844 172.68 35.9707 172.68C36.4958 172.68 36.9258 172.953 36.9258 173.286C36.9258 174.131 40.1736 177.927 40.8972 177.927C41.2236 177.927 41.4912 177.179 41.4912 176.265C41.4912 175.352 42.2294 173.139 43.132 171.349L44.7728 168.093L43.0786 165.519C41.5674 163.223 41.4305 162.533 41.8076 159.123C42.3298 154.402 43.5442 148.416 43.9793 148.416C44.1573 148.416 45.3238 149.199 46.571 150.156L48.8396 151.895L48.5428 146.215C48.2721 141.032 48.0799 140.361 46.3423 138.537C44.5833 136.691 44.455 136.223 44.6518 132.375C44.7686 130.085 44.5354 127.593 44.1332 126.837C43.5675 125.774 43.5917 125.461 44.24 125.453C46.4332 125.427 46.8112 124.436 45.6954 121.632C45.0987 120.132 44.4221 118.899 44.192 118.891C43.9619 118.883 43.0909 118.348 42.2559 117.702L40.7374 116.527L42.2157 113.468C43.0288 111.786 43.4935 110.208 43.2488 109.962C43.0041 109.716 41.6395 109.865 40.2161 110.294C38.7926 110.723 36.8678 110.882 35.9393 110.647C34.7176 110.339 34.0118 110.549 33.3881 111.407C32.5686 112.534 32.5038 112.523 32.0833 111.191C31.8249 110.372 32.0614 108.972 32.6531 107.822C34.1501 104.912 33.9209 104.092 31.2191 102.693C28.8493 101.465 19.2031 95.9669 18.7822 95.6043C18.6676 95.5056 18.9611 94.7798 19.4346 93.9921C20.2047 92.709 20.6645 92.6011 23.821 92.9619C26.8779 93.3117 27.5508 93.1731 28.8757 91.9217C29.8842 90.9687 30.4038 89.7366 30.4038 88.2971C30.4038 86.134 30.3786 86.1161 27.3061 86.106C22.1505 86.0895 22.0181 85.4229 26.3821 81.4585C28.5251 79.5117 32.875 76.2584 36.0479 74.2289L41.8172 70.539L51.0405 69.7412C58.1127 69.1293 60.5977 69.1229 61.6947 69.7132C62.4813 70.1369 63.2209 70.3857 63.3373 70.2663C63.4542 70.147 63.9071 63.1143 64.3445 54.6383L65.1393 39.227L67.6758 32.3834C69.071 28.6197 70.3219 25.4297 70.4566 25.2947C70.5908 25.1598 75.2552 27.6217 80.8217 30.7657C87.9391 34.7857 92.3949 37.8145 95.8345 40.97C100.658 45.3953 100.776 45.4573 104.375 45.4573C107.345 45.4573 109.341 46.0536 115.084 48.6596L122.143 51.862L133.687 52.6828C140.036 53.1345 145.332 53.3902 145.455 53.2511C145.578 53.1124 145.307 50.6377 144.851 47.7525C142.6 33.4755 142.471 30.5766 143.682 21.4084L144.835 12.6675H153.043C163.685 12.6675 166.081 11.6471 171.288 4.89624C173.256 2.34574 175.087 0.24741 175.356 0.233179C175.626 0.218948 175.845 1.24034 175.845 2.50274V4.79801H183.017V17.7851L186.852 18.2327C189.436 18.5343 191.189 18.4149 192.23 17.8673C193.083 17.4201 194.22 16.8472 194.754 16.5943C195.293 16.3414 196.489 14.838 197.416 13.2533C198.9 10.7134 199.361 10.3783 201.328 10.4223C202.557 10.4503 204.661 10.9704 206.008 11.5791C208.387 12.6556 208.45 12.6501 208.45 11.3648C208.45 10.6284 208.884 10.0445 209.432 10.0445C210.14 10.0445 210.409 9.3137 210.409 7.4045V4.76448L212.345 5.7712C214.13 6.69894 214.856 6.65258 221.635 5.18177C225.68 4.30361 229.045 3.64119 229.109 3.70959C229.177 3.77799 229.442 7.14927 229.698 11.2018C229.953 15.2539 230.414 18.5696 230.72 18.5696C231.501 18.5696 231.423 21.6824 230.629 22.1764C229.693 22.7585 229.825 25.2736 230.871 26.7848C231.364 27.4964 232.373 30.2883 233.103 32.9894C234.131 36.749 234.268 38.1138 233.692 38.8111C233.19 39.4193 232.934 43.4852 232.925 51.06C232.916 57.2963 232.692 62.6194 232.419 62.8903C232.154 63.1607 231.921 64.1444 231.907 65.0763C231.898 66.0077 231.464 67.5079 230.953 68.4099C230.442 69.3115 230.013 71.0082 229.999 72.1806C229.981 73.8433 229.698 74.312 228.711 74.312C227.762 74.312 227.397 74.8431 227.246 76.4434C227.073 78.2608 226.543 78.8433 223.648 80.4013L220.261 82.2288L220.645 87.6975C220.855 90.7053 220.85 93.8668 220.631 94.7234C219.992 97.2509 214.778 102.511 212.911 102.511C210.861 102.511 208.765 104.73 207.551 108.192C207.035 109.672 205.93 111.925 205.099 113.198C203.757 115.259 203.196 115.558 199.986 115.924C193.325 116.685 193.079 116.803 191.317 120.086C188.833 124.725 186.929 131.942 186.929 136.749C186.929 142.723 186.066 144.753 182.674 146.753C179.109 148.854 178.821 149.332 180.008 151.185C180.533 152.006 181.163 153.859 181.41 155.302C181.656 156.745 182.259 158.568 182.747 159.355C183.505 160.571 183.496 161.06 182.679 162.633C182.122 163.709 181.72 166.281 181.716 168.778C181.711 173.028 181.693 173.081 179.593 173.837C178.429 174.258 174.393 174.897 170.626 175.257C166.859 175.618 162.223 176.214 160.322 176.581C158.422 176.948 154.101 177.444 150.721 177.683C143.54 178.191 142.847 177.858 142.212 173.602C141.974 172.005 141.553 170.557 141.277 170.385C140.456 169.875 136.846 171.384 136.458 172.398C136.016 173.556 136.63 175.304 137.479 175.304C138.932 175.304 137.528 178.283 135.521 179.458C133.604 180.581 133.037 180.635 130.63 179.921C129.132 179.477 127.25 178.503 126.446 177.756C125.225 176.622 124.723 176.519 123.391 177.129C121.931 177.798 121.852 178.055 122.44 180.197C122.793 181.483 122.92 182.798 122.723 183.119C122.525 183.44 120.765 184.37 118.812 185.183C114.255 187.083 113.697 188.374 114.475 195.215C114.93 199.219 114.857 200.862 114.148 202.57C113.287 204.64 113.319 204.814 114.688 205.551C115.488 205.982 116.708 207.056 117.398 207.939C118.433 209.262 119.047 209.479 120.902 209.176C122.983 208.837 123.119 208.917 122.718 210.255C121.023 215.909 120.598 229.558 122.03 232.343C122.632 233.514 122.848 235.005 122.597 236.264C122.321 237.654 122.517 238.654 123.219 239.434C124.463 240.817 125.586 245.444 125.608 249.276C125.623 251.825 125.826 252.18 127.731 252.985C129.499 253.733 130.111 253.734 131.536 252.993C133.026 252.219 133.488 252.265 135.299 253.372C136.435 254.067 137.364 255.066 137.364 255.593C137.364 256.119 138.159 256.935 139.13 257.405C141.147 258.382 141.691 260.258 142.522 269.081C142.997 274.127 142.926 274.791 141.767 276.083C140.324 277.692 140.677 278.722 142.971 279.598C145.005 280.376 145.094 283.778 143.177 287.555C141.998 289.878 141.911 290.612 142.525 293.063C143.656 297.58 143.459 298.622 141.325 299.43C139.273 300.211 138.016 302.267 138.016 304.852C138.016 306.11 138.355 306.463 139.571 306.463C142.47 306.463 142.775 312.55 140.231 319.642C138.861 323.462 138.581 325.243 138.785 328.865L139.037 333.35H137.222C135.421 333.35 135.407 333.382 135.407 337.656C135.407 340.024 135.694 342.499 136.045 343.16C136.521 344.055 136.357 344.776 135.393 346.006C134.585 347.039 134.103 348.659 134.103 350.339V353.02C134.103 353.456 133.164 355.573 132.017 356.766L129.931 358.928L131.25 361.715C132.305 363.941 132.442 364.928 131.937 366.631C131.36 368.578 131.077 368.761 128.685 368.761C125.132 368.761 120.865 366.154 119.021 362.853C118.217 361.416 117.358 360.237 117.115 360.237C116.871 360.237 115.299 362.968 113.622 366.301C111.945 369.638 109.566 373.512 108.335 374.917C106.283 377.249 105.891 377.428 103.624 377.066C101.258 376.685 101.074 376.79 99.332 379.558L97.5122 382.45L91.5248 378.585C87.4333 375.941 85.4054 374.968 85.1205 375.509C84.8913 375.945 84.3435 377.855 83.9029 379.746C83.314 382.276 82.8163 383.162 82.0252 383.079C81.4335 383.019 79.8667 382.854 78.5436 382.712C75.4506 382.386 75.1055 380.738 77.2178 376.386C78.2204 374.32 78.6262 372.626 78.3669 371.584C78.0177 370.189 77.7109 370.037 75.9939 370.414C74.4727 370.753 73.4199 370.451 71.3897 369.101C68.9619 367.485 68.7893 367.178 69.1709 365.13L69.5841 362.917L66.1359 363.308C64.2394 363.523 62.5776 363.794 62.4439 363.909C62.3097 364.019 61.0683 363.533 59.6855 362.826L57.1709 361.536L58.299 359.084C59.4006 356.688 60.0608 355.903 61.3833 355.435C61.7691 355.297 60.3826 353.668 59.8526 353.02L57.7785 351.267C56.0469 349.802 55.5018 349.642 54.4764 350.284C53.8012 350.707 52.5667 351.056 51.7336 351.056C50.9008 351.056 49.6495 351.487 48.9533 352.02C48.8487 352.098 48.7213 352.171 48.5743 352.244L44.9545 355.031C41.8391 357.4 41.3821 357.404 40.0015 355.054C39.5409 354.269 38.6319 352.763 38.2028 352.001Z" fill="currentColor"/>
</svg>
