<svg width="246" height="229" viewBox="0 0 246 229" fill="none" xmlns="http://www.w3.org/2000/svg">
<path fill-rule="evenodd" clip-rule="evenodd" d="M140.014 227.737L141.441 226.732L140.162 224.622C139.458 223.462 138.882 221.835 138.88 221.007C138.878 219.672 138.638 219.543 136.758 219.866C125.4 221.816 122.533 222.016 113.599 221.485C105.449 221.001 103.596 221.09 98.5991 222.211C93.989 223.246 89.2474 223.569 73.821 223.902C63.0564 224.135 54.7465 224.065 54.7493 223.741C54.7657 221.833 56.2481 213.849 57.4428 209.232L58.843 203.822H65.0423L65.5011 195.789C65.7531 191.37 66.0083 185.1 66.0682 181.853C66.128 178.607 66.4211 174.583 66.7196 172.91C67.1593 170.447 67.0387 169.526 66.0873 168.065L64.9127 166.263L58.5782 166.68C55.0944 166.91 51.7535 167.286 51.154 167.518C50.2939 167.85 50.1109 167.608 50.2848 166.371C50.4432 165.245 50.9815 164.747 52.1936 164.606C53.3797 164.467 54.2019 163.735 54.9552 162.146C55.9029 160.147 56.3188 159.884 58.5335 159.884C60.3628 159.884 61.4526 159.442 62.5706 158.245C63.4134 157.343 64.6871 156.605 65.4021 156.605C67.2524 156.605 66.3402 155.93 62.7469 154.64C43.8522 147.856 16.9518 138.917 15.641 138.988C13.446 139.106 11.0118 138.062 9.47004 136.341C8.78159 135.573 7.09423 134.763 5.72006 134.543L3.22098 134.141V130.313C3.22098 127.157 3.4497 126.362 4.52576 125.783C5.49499 125.262 5.83008 124.41 5.83008 122.468C5.83008 121.031 6.56373 118.039 7.46037 115.82C8.35701 113.601 9.09112 111.689 9.09112 111.571C9.09112 111.452 7.80414 111.356 6.23092 111.356H3.37118L3.11872 97.879C2.86123 84.1492 2.80279 83.8361 0.335674 82.9653C-0.851319 82.5466 1.3396 72.4888 3.3059 69.3277C5.4297 65.9142 5.5904 64.4338 4.19934 61.0868C2.71286 57.5094 2.94752 52.1876 4.75266 48.5422C5.59497 46.841 6.78561 42.7931 7.3992 39.5466C8.01232 36.3007 8.65147 33.1667 8.81902 32.5828C9.0167 31.8965 10.4877 31.2304 12.9835 30.6979C15.4018 30.182 17.3745 29.3047 18.2684 28.348L19.6946 26.8217L18.021 24.8216C17.1001 23.7212 15.6876 21.6417 14.8814 20.1994C14.0756 18.7575 13.1904 17.5777 12.9146 17.5777C12.6389 17.5777 11.4596 18.7708 10.2941 20.2292C8.85326 22.0324 7.74799 22.8192 6.83948 22.6884C5.5799 22.507 5.51507 22.1219 5.69769 15.9384C5.83602 11.2506 5.60181 8.5564 4.87547 6.49112C4.31667 4.90188 3.93592 3.5362 4.02951 3.45678C4.1231 3.3769 6.16244 2.6516 8.56199 1.84459C12.5005 0.519759 13.2534 0.456406 16.3067 1.19319C19.0071 1.84458 20.3739 1.84367 23.0862 1.18952C25.7378 0.550055 28.1474 0.533529 34.0632 1.11423C38.2318 1.52325 41.8768 1.78032 42.1635 1.68438C42.4497 1.58889 44.3608 2.82742 46.4097 4.4364C49.8054 7.10212 50.2583 7.76821 51.5211 11.9483C52.7432 15.994 53.5746 17.2747 58.5618 22.7949C61.6722 26.2373 65.8828 31.4338 67.9185 34.3424C70.1473 37.5263 73.5289 41.218 76.4165 43.6198C81.6027 47.9335 95.6037 57.3359 107.518 64.5067C120.216 72.1491 142.689 80.5337 150.474 80.5337C154.153 80.5337 154.415 80.637 154.817 82.2501C155.101 83.3858 154.903 84.347 154.234 85.0907C152.751 86.7387 153.62 87.0935 156.701 86.0969C158.198 85.6126 163.284 84.9222 168.005 84.5619C173.149 84.1689 177.348 83.512 178.482 82.9221C179.716 82.2804 181.313 82.0637 183.066 82.3001C184.546 82.4998 188.8 82.4543 192.518 82.1996L199.28 81.7364L199.242 74.3066C199.222 70.2206 199.425 66.6556 199.692 66.3852C199.959 66.1143 205.172 64.8083 211.276 63.4821C219.274 61.7442 222.541 61.2745 222.974 61.8002C223.306 62.2014 224.227 65.137 225.022 68.3238L226.467 74.1184L229.742 73.6818C231.544 73.4413 233.277 73.1879 233.594 73.1186C233.911 73.0488 234.841 74.6151 235.66 76.5987C236.479 78.5827 238.245 81.9218 239.584 84.0188C240.923 86.1162 242.755 90.2477 243.655 93.1999C245.084 97.8873 245.247 99.3764 244.94 104.946C244.731 108.756 244.871 112.135 245.289 113.34C245.673 114.45 245.881 115.462 245.75 115.59C245.619 115.719 242.483 114.678 238.781 113.278L232.051 110.733L226.389 112.061C223.275 112.791 216.837 113.725 212.081 114.135L203.434 114.882L201.221 112.725C199.159 110.716 198.981 110.658 198.596 111.876C198.369 112.594 197.307 113.547 196.235 113.994C195.163 114.44 194.131 115.057 193.942 115.365C193.477 116.122 199.412 126.148 204.38 132.997C213.573 145.67 213.582 145.688 214.771 153.939C215.982 162.334 215.931 162.48 211.769 162.497C209.604 162.506 209.225 162.763 208.378 164.803C207.853 166.067 207.128 168.71 206.766 170.678C205.87 175.552 203.536 178.842 199.382 181.089C196.126 182.849 195.791 183.283 193.047 189.286C191.454 192.773 190.133 195.667 190.112 195.718C190.092 195.769 188.618 195.585 186.838 195.309C184.928 195.012 182.818 195.081 181.692 195.476C180.254 195.98 179.039 195.892 176.776 195.121C175.123 194.557 172.346 193.925 170.606 193.717L167.442 193.336L167.891 197.828C168.138 200.299 168.387 202.88 168.446 203.563C168.541 204.67 168.002 204.827 163.498 204.997C159.513 205.148 158.443 205.398 158.443 206.177C158.443 206.721 157.966 208.094 157.383 209.228C156.345 211.246 156.36 211.32 158.077 212.697L159.831 214.103L159.37 221.423L158.91 228.742H148.749C139.434 228.742 138.706 228.659 140.014 227.737Z" fill="currentColor"/>
</svg>
