<svg width="225" height="283" viewBox="0 0 225 283" fill="none" xmlns="http://www.w3.org/2000/svg">
<path fill-rule="evenodd" clip-rule="evenodd" d="M116.602 213.867H116.597C117.053 212.972 118.825 210.429 120.318 209.952C121.799 209.479 121.947 208.905 120.87 207.822C120.306 207.257 120.386 206.66 121.196 205.421C121.787 204.512 122.271 202.818 122.271 201.661C122.271 200.502 122.621 198.581 123.048 197.392C123.476 196.203 123.696 195.1 123.537 194.94C123.378 194.78 116.938 195.183 109.226 195.837L95.205 197.024L94.0093 195.455C92.4484 193.407 92.1393 193.466 90.7368 196.084L89.5594 198.283L83.9039 197.094C80.5342 196.385 77.0549 196.053 75.2964 196.272C73.6734 196.474 71.1414 196.313 69.6705 195.915L66.9956 195.191L67.3262 192.243C67.5978 189.82 67.4672 189.296 66.5934 189.296C65.894 189.296 65.5302 188.734 65.5302 187.656C65.5302 186.551 65.1576 186 64.3888 185.965C63.7068 185.934 63.5757 185.78 64.0629 185.582C64.5112 185.4 64.8778 184.694 64.8778 184.013C64.8778 181.935 61.8697 175.903 60.396 175.026C58.5274 173.915 58.6429 172.9 60.6388 172.9C61.5355 172.9 62.2691 172.766 62.2691 172.602C62.2691 172.438 61.0954 170.618 59.6605 168.558C58.2256 166.499 57.0518 164.304 57.0518 163.681C57.0518 162.423 55.7895 161.752 53.4251 161.752C52.0025 161.752 51.9277 161.608 52.591 160.143C53.1822 158.838 53.0416 157.785 51.8455 154.569L50.3704 150.604L47.3523 150.59C44.5848 150.577 44.1821 150.36 42.5075 147.98C40.6942 145.402 40.6859 145.345 41.3721 139.96C41.7524 136.977 42.2208 133.578 42.413 132.406L42.7623 130.274H39.2451C35.7576 130.274 35.717 130.251 34.5218 127.586C33.1773 124.588 31.5895 123.716 27.4752 123.716C25.0738 123.716 24.567 123.45 23.4965 121.628L22.2698 119.54L23.8096 118.513C27.4642 116.076 27.9107 115.495 27.1825 114.127C26.4311 112.715 26.8716 107.51 27.7911 106.939C28.1011 106.746 28.3549 105.74 28.3549 104.703C28.3549 103.134 28.0545 102.783 26.5617 102.611C24.0397 102.319 24.3191 100.704 27.0506 99.7819L29.3333 99.0107L29.6967 88.6315L26.6927 85.1886C24.1913 82.3214 23.323 81.7457 21.5037 81.7457C19.8985 81.7457 18.9434 81.2674 17.9025 79.9421C16.6366 78.3304 16.5329 77.6519 16.9269 73.5484C17.2287 70.4044 17.7592 68.5351 18.6102 67.617C19.8282 66.3022 19.8287 66.2132 18.6271 63.0264C17.5095 60.0619 17.1424 59.7024 14.4479 58.9326L11.4937 58.0884L12.4976 55.1261C13.0496 53.4969 13.334 51.9959 13.1295 51.7902C12.9254 51.5845 13.4057 50.8726 14.1978 50.2083L15.6372 48.9996L13.5586 48.978C11.5814 48.9574 11.4969 48.8522 11.8219 46.8246C12.094 45.1302 11.8279 44.3769 10.5236 43.1481C8.97955 41.6933 8.79465 41.6644 7.3867 42.6559C5.45829 44.0138 5.05015 43.9835 4.56439 42.4439C4.3448 41.7475 3.23131 40.5833 2.09043 39.8571C-0.377602 38.2858 -0.421886 38.3096 8.46321 36.4711C14.0955 35.3056 16.364 35.178 25.0943 35.536C32.6733 35.8463 36.8227 35.6981 41.6748 34.9429C45.2344 34.3889 48.3895 34.0868 48.6858 34.2709C48.9826 34.4554 49.2254 35.2904 49.2254 36.1268C49.2254 36.9628 49.6473 37.9993 50.1627 38.4294C50.9543 39.09 50.7767 39.5073 49.0214 41.1135L46.9428 43.0154L52.2217 43.0347C55.1253 43.0452 60.6283 42.8616 64.4505 42.6266L71.3998 42.1987V33.7733C71.3998 29.1391 71.1798 25.3432 70.9109 25.3377C69.1546 25.3014 68.7866 24.207 69.7513 21.8856L70.7415 19.5031L80.2046 19.1175L80.0133 13.3532L79.822 7.58885L83.2743 8.0433C85.1731 8.29349 87.3845 8.92791 88.1889 9.45353C89.5435 10.3381 91.0847 10.2766 93.8002 9.22859C94.5352 8.94536 94.9082 9.42093 95.2114 11.0294C95.6355 13.2779 98.8563 17.4782 100.157 17.4782C100.567 17.4782 100.708 17.9511 100.478 18.5543C100.252 19.146 100.577 20.4006 101.202 21.3416C102.168 22.7977 102.312 24.4187 102.172 32.2336C102.081 37.2832 101.703 42.3681 101.331 43.5332C100.44 46.3302 100.96 46.989 104.062 46.989C106.359 46.989 108.404 45.7366 122.448 35.7325C131.139 29.5417 139.335 23.2706 140.662 21.797C144.74 17.2666 146.897 12.5163 147.663 6.37052C148.04 3.34811 148.441 0.782 148.555 0.667237C148.669 0.552932 152.56 1.48116 157.202 2.72978C161.968 4.01238 167.218 5.00483 169.263 5.00942C172.1 5.0163 174.562 5.71593 180.646 8.24439L188.409 11.4702L190.715 10.2803C193.001 9.10144 193.051 9.10556 196.289 10.7508C198.086 11.6643 201.024 13.3481 202.817 14.4926C204.611 15.6374 206.591 16.7686 207.219 17.0059C208.62 17.5352 208.679 19.0032 207.379 20.9992C206.595 22.2019 206.542 22.9258 207.116 24.583C207.904 26.8553 208.336 27.0766 209.569 25.8394C210.018 25.3887 211.47 24.987 212.797 24.9466C214.123 24.9062 215.896 24.6436 216.736 24.3627L218.264 23.8517L216.899 26.5409C216.149 28.02 215.538 29.4632 215.543 29.7483C215.547 30.0329 216.538 30.9092 217.745 31.6951C218.953 32.481 220.245 34.0042 220.618 35.0802C221.237 36.8636 221.157 37.072 219.717 37.4356C218.207 37.8166 218.176 37.9286 219.022 39.9636C219.575 41.2949 219.791 43.4896 219.599 45.8225C219.317 49.2397 219.462 49.7694 221.329 52.1395C222.929 54.1704 223.46 55.6123 223.795 58.8413L224.223 62.9553L221.937 61.2022C220.68 60.2377 219.505 59.449 219.327 59.449C218.855 59.449 217.578 65.5774 216.868 71.2532C216.286 75.8965 216.341 76.3073 217.838 78.598L219.423 81.0245L217.513 85.0858L215.603 89.1475L214.453 86.7219C213.458 84.6244 213.078 84.3518 211.647 84.7071C209.414 85.2607 209.243 85.5251 208.78 89.1516L208.378 92.2943L212.6 91.4983L212.562 94.6557C212.54 96.3918 212.118 99.3619 211.623 101.256C210.756 104.569 210.638 104.698 208.472 104.698C207.082 104.698 205.903 104.26 205.388 103.552C204.16 101.864 203.494 103.041 204.414 105.273C205.072 106.869 205.034 107.468 204.198 108.751C203.274 110.169 203.3 110.667 204.501 114.547C205.523 117.847 205.659 119.137 205.114 120.34C204.517 121.656 204.091 121.828 202.268 121.484C199.753 121.009 197.945 122.57 196.621 126.355C196.078 127.91 194.837 129.305 192.833 130.618C189.019 133.115 188.759 134.02 191.695 134.574C194.788 135.157 194.988 135.69 193.002 138.062C191.631 139.701 191.458 140.299 192.039 141.391C192.572 142.392 192.519 143.172 191.828 144.532C190.548 147.049 191.424 148.89 194.602 150.362C196.435 151.211 197.134 151.89 196.879 152.571C196.676 153.112 196.343 154.56 196.138 155.788L195.765 158.021L198.802 155.921C202.101 153.639 202.599 154.13 200.481 157.576L199.123 159.785H200.786C202.241 159.785 202.379 159.969 201.89 161.26C201.323 162.759 200.619 162.9 197.563 162.129C195.926 161.717 195.873 161.787 196.31 163.786C196.859 166.3 199.486 168.781 202.165 169.314C204.087 169.697 204.117 169.766 203.898 173.27C203.683 176.694 203.739 176.835 205.301 176.835C206.42 176.835 207.339 177.489 208.246 178.928C209.411 180.78 209.457 181.175 208.636 182.353C207.364 184.179 207.452 187.089 208.794 187.607C209.712 187.961 209.541 188.378 207.688 190.3C205.097 192.988 203.795 193.201 203.795 190.935C203.795 189.51 203.507 189.296 201.592 189.296C198.702 189.296 197.747 190.586 197.604 194.69C197.507 197.468 197.208 198.243 195.912 199.078C195.047 199.637 194.104 200.467 193.817 200.924C193.53 201.381 192.503 201.746 191.534 201.735C190.074 201.719 189.959 201.606 190.866 201.074C191.99 200.415 193.758 196.035 193.148 195.422C192.46 194.73 190.268 195.921 189.645 197.326C189.11 198.531 188.56 198.738 186.315 198.575C183.899 198.399 183.583 198.551 183.205 200.068C182.871 201.405 182.383 201.756 180.854 201.756C179.097 201.756 173.838 205.26 173.806 206.454C173.799 206.692 174.895 207.073 176.24 207.303C178.068 207.615 179.056 208.29 180.153 209.975C180.96 211.214 181.613 213.298 181.613 213.665L181.817 214.735C182.032 215.869 181.66 216.47 180.302 217.172C179.311 217.687 178.192 218.999 177.815 220.087C177.152 222.002 177.219 222.107 179.864 223.296L182.599 224.527L180.841 225.362C178.62 226.418 178.241 227.363 178.041 232.344C177.944 234.773 177.457 236.976 176.815 237.899C175.356 239.992 175.473 240.731 177.43 241.782C178.851 242.549 178.96 242.797 178.136 243.403C177.601 243.798 176.948 245.285 176.683 246.708C176.419 248.136 175.658 250.357 174.99 251.652C173.867 253.823 173.85 254.213 174.763 256.816C175.306 258.363 175.751 259.722 175.751 259.837C175.751 259.947 174.43 260.241 172.816 260.484C170.721 260.801 169.878 261.232 169.87 261.999C169.863 262.587 168.399 264.033 166.616 265.203C163.49 267.26 163.124 267.338 156.356 267.402C152.496 267.439 146.46 267.659 142.944 267.893L136.55 268.316L132.508 272.635C130.286 275.013 127.829 277.74 127.049 278.704C125.697 280.366 125.344 280.448 119.548 280.453C116.203 280.453 112.439 280.724 111.184 281.045C109.928 281.371 106.806 281.793 104.245 281.982C100.045 282.294 99.4635 282.188 98.3108 280.898C97.3274 279.797 97.1019 278.814 97.3324 276.643C97.552 274.568 97.3571 273.608 96.6006 273.035C95.1799 271.956 95.8464 264.712 97.3667 264.712C98.1419 264.712 98.0442 264.368 96.9307 263.174C95.394 261.531 95.5999 259.465 97.3009 259.465C97.9866 259.465 98.1314 259.121 97.7839 258.317C97.5118 257.689 97.1489 256.16 96.9777 254.93C96.5969 252.18 97.9725 250.94 101.405 250.94C103.405 250.94 103.941 250.615 104.894 248.806C105.513 247.635 106.443 245.937 106.962 245.037C108.386 242.558 108.202 237.94 106.627 236.618C105.425 235.608 105.392 235.291 106.176 232.271C106.926 229.37 107.255 228.961 109.135 228.575C110.298 228.337 111.312 228.029 111.389 227.901C112.943 225.215 115.103 219.661 115.12 218.297C115.133 217.315 115.513 215.841 115.965 215.024L116.602 213.867Z" fill="currentColor"/>
</svg>
