<svg width="454" height="169" viewBox="0 0 454 169" fill="none" xmlns="http://www.w3.org/2000/svg">
<path fill-rule="evenodd" clip-rule="evenodd" d="M137.783 32.3999C138.348 32.7042 139.232 32.9218 140.009 32.9218C141.612 32.9218 141.835 32.6762 141.835 30.9116C141.835 28.6067 142.853 26.3642 143.899 26.3642C144.389 26.3642 144.475 27.7703 144.173 30.8501C143.583 36.8738 144.762 37.8309 149.51 35.1822C149.606 35.1289 149.239 32.9558 148.695 30.3539C147.459 24.4458 147.485 23.3717 148.787 26.5281C149.345 27.8805 150.204 28.9873 150.697 28.9873C151.19 28.9873 151.778 29.7249 152.003 30.6265C152.417 32.2869 154.413 32.9002 155.205 31.6103C155.938 30.4177 156.56 30.9226 157.982 33.8642C159.232 36.4528 159.659 36.7967 161.844 36.9794L164.299 37.1846L165.867 45.7101C166.729 50.3989 167.56 54.3743 167.714 54.5441C167.868 54.714 168.248 54.4404 168.558 53.9363C168.959 53.2831 169.389 53.9478 170.056 56.2509L170.991 59.4817L176.613 59.6708C182.786 59.8783 182.528 60.0564 183.067 55.2189C183.23 53.7527 183.585 53.5581 186.427 53.3763L189.605 53.1729L189.175 55.3438C188.939 56.5373 188.588 58.2519 188.395 59.1535C188.063 60.7032 188.375 60.9107 194.063 62.9347C199.218 64.7691 200.231 64.9481 201.122 64.1819C201.695 63.6903 202.656 63.1128 203.257 62.8989C203.86 62.685 204.446 61.704 204.562 60.7184C204.844 58.3084 206.403 57.8309 206.403 60.1542V61.9202L213.74 61.4882C231.281 60.4549 246.871 57.6753 248.9 55.2185C249.495 54.4973 250.309 53.9074 250.707 53.9074C251.733 53.9074 261.932 48.7233 263.306 47.5036C263.934 46.9463 264.454 45.8721 264.462 45.1165C264.477 43.5773 267.696 41.025 273.844 37.6767C275.996 36.5042 277.81 35.5453 277.875 35.5453C277.939 35.5453 278.136 36.3055 278.313 37.2341C278.489 38.1633 277.958 41.5951 277.132 44.8604C275.94 49.5707 275.787 51.0512 276.391 52.0244C278.199 54.9352 279.054 52.9237 281.028 41.1196L282.563 31.9385L286.018 28.8261C289.403 25.7766 289.478 25.6307 289.71 21.6121C289.84 19.3568 290.094 16.8095 290.274 15.9524L290.602 14.394L292.078 15.7886C292.89 16.5556 294.049 17.1832 294.654 17.1832C295.628 17.1832 295.753 18.1504 295.753 25.7082C295.753 33.575 295.846 34.2338 296.963 34.2338C297.981 34.2338 298.239 33.5314 298.589 29.8071C298.818 27.3723 299.007 23.7178 299.009 21.686C299.014 18.1788 299.105 17.9741 300.806 17.6473C301.817 17.4531 302.807 17.6339 303.078 18.0627C303.343 18.4804 303.566 21.1833 303.575 24.069C303.597 31.3505 304.249 36.2008 305.206 36.2008C306.072 36.2008 306.828 30.1946 306.836 23.2491C306.84 19.3155 306.906 19.1502 308.471 19.1502C310.072 19.1502 310.101 19.2438 310.101 24.3054C310.101 27.1405 310.288 30.829 310.516 32.5027C310.877 35.1464 311.133 35.5453 312.473 35.5453H314.014V26.692C314.014 20.0398 314.217 17.8419 314.83 17.8515C315.278 17.8589 319.46 18.2982 324.123 18.8289C328.786 19.3591 333.086 19.7961 333.676 19.7998C334.598 19.8053 334.818 21.0718 335.224 28.6746C335.672 37.096 335.778 37.6083 337.335 38.8395C338.236 39.5524 339.215 40.1358 339.51 40.1358C339.804 40.1358 340.131 37.9962 340.237 35.3814C340.422 30.7844 340.486 30.6201 342.154 30.4259C344.693 30.1303 346.271 28.1509 345.349 26.4188C344.949 25.6674 344.076 25.0527 343.41 25.0527C342.744 25.0527 342.029 24.6097 341.823 24.069C341.541 23.3308 341.931 23.0852 343.384 23.0852C344.448 23.0852 345.32 22.8245 345.32 22.5059C345.32 21.5465 348.799 21.1852 350.204 21.9986C350.926 22.4159 352.249 22.7818 353.146 22.8112C359.588 23.0251 359.929 23.0852 359.146 23.872C356.869 26.1618 359.705 28.1412 363.175 26.6833C364.451 26.1471 366.624 25.7082 368.002 25.7082C370.777 25.7082 373.364 23.8385 373.364 21.8334C373.364 20.801 374.44 20.4755 381.027 19.5133C385.242 18.8982 388.983 18.3106 389.344 18.2073C389.7 18.104 391.421 19.0621 393.169 20.3359C395.982 22.3884 396.411 22.5275 396.949 21.557C397.424 20.7096 398.515 20.4622 401.789 20.4622C404.692 20.4622 406.555 20.1078 407.733 19.3324C409.431 18.2133 415.873 17.5711 425.172 17.5931C428.715 17.6014 429.204 17.4237 430.87 15.515C433.427 12.588 442.356 6.91322 445.182 6.41928C447.433 6.02724 447.57 6.11125 448.077 8.15221C448.369 9.33197 448.661 15.6889 448.725 22.2786C448.826 32.7272 448.99 34.4238 449.994 35.5448C451.108 36.7815 451.095 36.8775 449.597 38.1119L448.04 39.394L449.574 42.3429C450.506 44.1333 451.327 47.2502 451.665 50.2749C451.971 53.015 452.528 56.9257 452.902 58.9653C453.674 63.1537 453.779 67.8406 453.176 70.8759C452.875 72.3949 452.409 72.9278 451.382 72.9352C448.469 72.9563 448.401 73.2969 449.068 84.5988C449.606 93.6458 449.944 95.8107 451.318 98.9277C453.176 103.155 453.263 103.747 452.04 103.747C451.341 103.747 451.218 104.729 451.473 108.295C451.67 111.067 451.464 113.967 450.953 115.723L450.104 118.603L442.804 120.034C436.093 121.349 435.317 121.384 433.13 120.466L430.756 119.469V122.101C430.756 124.003 430.487 124.732 429.779 124.732C429.231 124.732 428.802 125.317 428.802 126.058V127.383L426.218 126.058C422.109 123.951 420.214 124.268 418.334 127.374C417.452 128.827 416.439 130.452 416.083 130.985C415.243 132.23 408.742 133.605 406.441 133.024C404.669 132.577 404.669 132.575 404.669 126.36V120.142H401.483C398.045 120.142 397.525 119.519 397.506 115.387C397.497 114.396 397.274 113.598 397.004 113.614C396.739 113.63 394.607 116.136 392.279 119.183C386.429 126.826 384.78 127.585 373.908 127.641C369.364 127.664 365.458 127.873 365.228 128.105C364.701 128.634 362.801 142.518 362.772 146.046C362.748 149.005 364.63 164.932 365.271 167.195C365.501 168.006 365.435 168.631 365.125 168.583C364.814 168.535 359.864 168.126 354.124 167.674C343.899 166.869 343.553 166.791 336.92 163.827C331.278 161.305 329.489 160.801 326.174 160.801H322.198L317.617 156.276C314.04 152.742 310.82 150.502 302.927 146.056C297.367 142.924 292.699 140.242 292.554 140.096C292.408 139.95 293.203 138.351 294.32 136.544C296.301 133.34 296.315 133.258 294.911 133.286C294.119 133.302 292.225 133.557 290.703 133.853C287.991 134.381 287.66 134.231 274.14 126.319C266.553 121.879 260.067 117.967 259.727 117.625C259.338 117.234 259.375 116.505 259.827 115.655C260.383 114.611 260.296 113.78 259.441 111.978C258.214 109.391 257.807 109.197 256.621 110.633C256.175 111.174 254.83 111.617 253.634 111.617C251.513 111.617 251.427 111.507 250.146 107.19C249.424 104.756 247.947 99.8127 246.865 96.206C245.782 92.5987 244.893 89.0856 244.889 88.3984C244.885 87.7107 244.148 86.1812 243.251 84.9991C242.355 83.817 241.611 82.0185 241.6 81.0026C241.589 79.9867 241.176 78.6205 240.684 77.9669C239.832 76.8376 239.607 76.8817 236.139 78.8492L232.49 80.9199V88.1404C232.49 94.8853 232.383 95.4889 230.86 97.3091C229.963 98.3805 229.229 99.8421 229.229 100.557C229.229 101.659 228.628 101.392 225.276 98.7982C223.102 97.1158 221.23 95.8442 221.117 95.9728C221.004 96.1008 220.24 97.5335 219.42 99.1568L217.93 102.108L217.056 99.9766C216.364 98.2901 215.801 97.8452 214.359 97.8452C213.109 97.8452 211.779 97.0644 210.122 95.3585C207.852 93.0215 207.707 92.6217 207.707 88.7294C207.707 84.7686 207.642 84.6025 206.24 84.9321C205.432 85.1221 201.691 85.7652 197.924 86.3616C194.158 86.9583 190.015 87.7204 188.718 88.0555C183.516 89.3982 183.264 89.2261 181.946 83.4236C180.128 75.4154 180.59 75.5637 166.686 78.5214L154.98 81.0113L154.319 83.6899C153.955 85.1634 153.827 88.8037 154.036 91.7793L154.413 97.1892H144.886C137.976 97.1892 134.769 97.4509 133.216 98.1413C132.038 98.6651 127.259 99.3803 122.596 99.7315C117.932 100.083 113.603 100.571 112.976 100.817C112.002 101.199 111.834 100.869 111.834 98.571V95.8777H107.991C103.661 95.8777 92.4312 92.6006 81.3054 88.0904C72.1505 84.3789 68.6201 82.522 58.0093 75.8373C36.4741 62.2704 30.5126 57.5927 25.1278 50.0376C23.1743 47.2966 18.871 42.0032 15.5647 38.2744C10.2228 32.2493 9.42617 31.0204 8.40673 27.2341C7.385 23.4391 6.88008 22.6629 3.77746 20.1216C0.156677 17.1561 0.126086 16.9876 3.08124 16.2774C4.06781 16.0406 4.87451 15.4695 4.87451 15.0082C4.87451 13.9992 9.52707 9.31361 10.5292 9.31361C10.9181 9.31361 11.5956 9.74833 12.0344 10.2799C12.726 11.1177 13.0684 11.1237 14.6078 10.3231C17.736 8.69664 18.1702 7.66285 16.2559 6.40137C14.302 5.11419 14.5818 4.55139 18.5528 1.78468L21.1139 -0.00012207L24.6991 3.11226C26.6709 4.82407 30.3706 8.66863 32.9209 11.6557C36.8329 16.2375 38.5454 17.6445 43.88 20.6573C54.4556 26.63 68.868 30.7532 81.4031 31.3922C89.1122 31.7847 89.5408 31.7379 91.4875 30.291L93.5209 28.7793L98.9277 30.8138C101.901 31.933 105.991 33.0301 108.016 33.2519L111.697 33.6549L112.81 30.7243C114.042 27.4825 117.704 23.3634 117.704 25.2203C117.704 25.8083 116.933 28.3827 115.989 30.9414C115.046 33.5002 114.483 35.8042 114.738 36.0613C114.994 36.3183 117.83 36.6323 121.042 36.759C128.127 37.0381 135.609 35.0206 136.221 32.6661C136.302 32.3544 136.38 32.1235 136.464 31.9674C136.07 31.0232 135.963 27.8621 136.382 26.3661C136.578 25.6646 136.852 24.6501 136.989 24.1112C137.349 22.7033 138.648 21.9738 141.204 21.7434C144.068 21.4854 144.389 21.7434 142.471 22.7625C141.805 23.1164 140.46 23.8867 139.481 24.4748C137.76 25.509 137.693 25.582 137.445 26.7085C137.304 27.3493 137.13 28.6866 137.058 29.68C136.931 31.4294 136.948 31.5088 137.58 32.1726C137.656 32.252 137.724 32.3287 137.783 32.3999Z" fill="currentColor"/>
</svg>
